<?xml version="1.0" encoding="UTF-8" standalone="no"?>
<svg
   width="512pt"
   height="512pt"
   fill="currentColor"
   class="bi bi-clock-history"
   viewBox="0 0 682.66667 682.66667"
   version="1.1"
   id="svg3"
   sodipodi:docname="clock.svg"
   xml:space="preserve"
   inkscape:version="1.4.2 (ebf0e940d0, 2025-05-08)"
   xmlns:inkscape="http://www.inkscape.org/namespaces/inkscape"
   xmlns:sodipodi="http://sodipodi.sourceforge.net/DTD/sodipodi-0.dtd"
   xmlns="http://www.w3.org/2000/svg"
   xmlns:svg="http://www.w3.org/2000/svg"><defs
     id="defs3" /><sodipodi:namedview
     id="namedview3"
     pagecolor="#ffffff"
     bordercolor="#000000"
     borderopacity="0.25"
     inkscape:showpageshadow="2"
     inkscape:pageopacity="0.0"
     inkscape:pagecheckerboard="0"
     inkscape:deskcolor="#d1d1d1"
     inkscape:zoom="0.55518931"
     inkscape:cx="776.31178"
     inkscape:cy="338.62324"
     inkscape:window-width="1920"
     inkscape:window-height="1013"
     inkscape:window-x="0"
     inkscape:window-y="0"
     inkscape:window-maximized="1"
     inkscape:current-layer="svg3"
     inkscape:document-units="pt" /><path
     d="M 360.2454,86.202554 A 255.78828,255.78828 0 0 0 341.42669,85.508271 V 48.967088 a 292.32946,292.32946 0 0 1 21.52276,0.803906 z m 73.22853,16.443536 A 255.78828,255.78828 0 0 0 397.48087,91.720273 l 8.00252,-35.664195 q 21.04772,4.713813 41.14537,12.497085 z m 50.06142,25.94424 a 255.78828,255.78828 0 0 0 -16.04158,-9.86612 l 18.01481,-31.790832 a 292.32946,292.32946 0 0 1 35.77382,23.897932 l -22.47283,28.83099 a 255.78828,255.78828 0 0 0 -15.27422,-11.03543 z m 67.01653,65.40871 a 255.78828,255.78828 0 0 0 -23.86139,-29.08678 l 26.45582,-25.21341 q 14.83572,15.67616 27.29626,33.25247 z m 27.18664,49.40368 a 255.78828,255.78828 0 0 0 -7.81981,-17.10127 l 32.63128,-16.44353 a 292.32946,292.32946 0 0 1 16.44353,39.7568 l -34.71412,11.43739 a 255.78828,255.78828 0 0 0 -6.54088,-17.64939 m 19.36683,91.60875 a 255.78828,255.78828 0 0 0 -3.65412,-37.45471 l 35.99307,-6.212 q 3.65412,21.19388 4.23877,42.75318 z m -4.78689,56.20034 q 1.82705,-9.28146 2.95983,-18.636 l 36.2854,4.49456 a 292.32946,292.32946 0 0 1 -8.40448,42.20507 l -35.2257,-9.7565 q 2.52135,-9.02567 4.38495,-18.30713 m -34.78721,86.93147 q 10.08537,-15.93195 17.75901,-33.17939 l 33.39865,14.79918 q -8.76989,19.73224 -20.28036,37.92975 z m -35.2257,44.03213 q 6.68704,-6.68704 12.78941,-13.81257 l 27.69822,23.86139 a 292.32946,292.32946 0 0 1 -14.65301,15.78579 z"
     id="path1"
     style="fill:#ffffff;fill-opacity:1;stroke:#000000;stroke-width:2.66667;stroke-dasharray:none;stroke-opacity:1" /><path
     d="M 341.42669,85.508271 A 255.78828,255.78828 0 1 0 522.30555,522.17541 l 25.83462,25.83461 A 292.36601,292.36601 0 1 1 341.42669,48.967088 Z"
     id="path2"
     style="fill:#ffffff;fill-opacity:1;stroke:#000000;stroke-width:2.66667;stroke-dasharray:none;stroke-opacity:1" /><path
     d="m 323.1561,158.59064 a 18.270591,18.270591 0 0 1 18.27059,18.27059 v 190.37956 l 118.68577,67.82044 a 18.270591,18.270591 0 0 1 -18.12443,31.71774 L 314.09389,393.69661 a 18.270591,18.270591 0 0 1 -9.20838,-15.85887 V 176.86123 a 18.270591,18.270591 0 0 1 18.27059,-18.27059"
     id="path3"
     style="fill:#ffffff;fill-opacity:1;stroke:#000000;stroke-width:2.66667;stroke-dasharray:none;stroke-opacity:1" /></svg>
