<?xml version="1.0" encoding="UTF-8" standalone="no"?>
<svg
   id="Discord-Logo"
   viewBox="0 0 682.66671 682.66667"
   version="1.1"
   sodipodi:docname="discord.svg"
   width="512pt"
   height="512pt"
   xml:space="preserve"
   inkscape:version="1.4.2 (ebf0e940d0, 2025-05-08)"
   xmlns:inkscape="http://www.inkscape.org/namespaces/inkscape"
   xmlns:sodipodi="http://sodipodi.sourceforge.net/DTD/sodipodi-0.dtd"
   xmlns="http://www.w3.org/2000/svg"
   xmlns:svg="http://www.w3.org/2000/svg"><sodipodi:namedview
     id="namedview1"
     pagecolor="#ffffff"
     bordercolor="#000000"
     borderopacity="0.25"
     inkscape:showpageshadow="2"
     inkscape:pageopacity="0.0"
     inkscape:pagecheckerboard="0"
     inkscape:deskcolor="#d1d1d1"
     inkscape:zoom="0.62673903"
     inkscape:cx="592.7507"
     inkscape:cy="336.66325"
     inkscape:window-width="1920"
     inkscape:window-height="1013"
     inkscape:window-x="0"
     inkscape:window-y="0"
     inkscape:window-maximized="1"
     inkscape:current-layer="Discord-Logo"
     inkscape:document-units="pt" /><defs
     id="defs1"><style
       id="style1">.cls-1{fill:#5865f2;}</style></defs><path
     id="Discord-Symbol-Blurple"
     class="cls-1"
     d="m 425.64636,114.32976 c -5.85291,10.39156 -11.10852,21.1416 -15.88599,32.13046 -45.3889,-6.80821 -91.61392,-6.80821 -137.12198,0 -4.65831,-10.98886 -10.03356,-21.7389 -15.886,-32.13046 C 214.11072,121.6161 172.544,134.3964 133.12767,152.43231 55.011005,268.17386 33.869406,380.9289 44.380617,492.13133 c 45.746894,33.80272 96.988693,59.60262 151.574543,76.08592 12.30265,-16.4833 23.17234,-34.04155 32.48894,-52.31628 -17.6779,-6.56939 -34.7585,-14.81104 -51.12215,-24.36647 4.29983,-3.10569 8.48048,-6.33056 12.54148,-9.43626 95.91373,45.15007 206.99698,45.15007 303.0299,0 4.061,3.34452 8.24165,6.56939 12.54147,9.43626 -16.36364,9.67461 -33.44424,17.79708 -51.24132,24.48612 9.3166,18.27473 20.18582,35.83298 32.48894,52.31628 54.58442,-16.4833 105.82575,-42.16402 151.57643,-75.96627 C 650.67784,363.37065 616.99618,251.57092 549.26872,152.55196 509.97393,134.51605 468.40721,121.73528 425.76554,114.56859 Z M 241.82171,423.69023 c -29.50243,0 -53.98855,-26.75569 -53.98855,-59.84146 0,-33.08577 23.53034,-59.9611 53.86937,-59.9611 30.33903,0 54.46619,26.99451 53.98854,59.9611 -0.47765,32.9666 -23.76916,59.84146 -53.86936,59.84146 z m 198.99416,0 c -29.62254,0 -53.86936,-26.75569 -53.86936,-59.84146 0,-33.08577 23.53034,-59.9611 53.86936,-59.9611 30.33903,0 54.34702,26.99451 53.8689,59.9611 -0.47766,32.9666 -23.76917,59.84146 -53.8689,59.84146 z"
     style="stroke-width:4.72924" /></svg>
