<?xml version="1.0" encoding="UTF-8" standalone="no"?>
<svg
   width="512pt"
   height="512pt"
   version="1.1"
   id="svg10"
   sodipodi:docname="flathub.svg"
   xml:space="preserve"
   inkscape:version="1.4.2 (ebf0e940d0, 2025-05-08)"
   xmlns:inkscape="http://www.inkscape.org/namespaces/inkscape"
   xmlns:sodipodi="http://sodipodi.sourceforge.net/DTD/sodipodi-0.dtd"
   xmlns="http://www.w3.org/2000/svg"
   xmlns:svg="http://www.w3.org/2000/svg"><defs
     id="defs10" /><sodipodi:namedview
     id="namedview10"
     pagecolor="#ffffff"
     bordercolor="#000000"
     borderopacity="0.25"
     inkscape:showpageshadow="2"
     inkscape:pageopacity="0.0"
     inkscape:pagecheckerboard="0"
     inkscape:deskcolor="#d1d1d1"
     inkscape:zoom="0.51255708"
     inkscape:cx="382.39644"
     inkscape:cy="351.1804"
     inkscape:window-width="1920"
     inkscape:window-height="1013"
     inkscape:window-x="0"
     inkscape:window-y="0"
     inkscape:window-maximized="1"
     inkscape:current-layer="svg10"
     inkscape:document-units="pt" /><g
     id="g10"
     transform="matrix(1.3977731,0,0,1.3977731,-158.07619,-146.65214)"
     style="fill:#ffffff;fill-opacity:1;stroke:#000000;stroke-opacity:1;stroke-width:1.90779653;stroke-dasharray:none"><circle
       cx="244.67621"
       cy="244.67621"
       r="96.65712"
       stroke-width="6.80481"
       id="circle8"
       style="fill:#ffffff;fill-opacity:1;stroke:#000000;stroke-opacity:1;stroke-width:1.90779653;stroke-dasharray:none" /><rect
       x="159.85364"
       y="380.16794"
       width="169.59169"
       height="169.59169"
       rx="45.224102"
       ry="45.224102"
       stroke-width="6.80481"
       id="rect8"
       style="fill:#ffffff;fill-opacity:1;stroke:#000000;stroke-opacity:1;stroke-width:1.90779653;stroke-dasharray:none" /><path
       d="M 552.82009,221.62349 535.48492,211.61504 435.72445,154.0184 a 27.475773,27.475773 0 0 0 -41.21438,23.79496 l 0.002,135.20889 a 27.475773,27.475773 0 0 0 41.21362,23.79466 l 117.09559,-67.60267 a 27.475773,27.475773 0 0 0 -2.1e-4,-47.59019 z"
       stroke-width="6.85217"
       id="path8"
       style="fill:#ffffff;fill-opacity:1;stroke:#000000;stroke-opacity:1;stroke-width:1.90779653;stroke-dasharray:none" /><path
       id="path9"
       style="fill:#ffffff;fill-opacity:1;stroke:#000000;stroke-opacity:1;stroke-width:1.90779653;stroke-dasharray:none"
       d="M 462.20704 380.62203 C 452.81161 380.62203 445.24786 388.18588 445.24786 397.5812 L 445.24786 448.45873 L 394.37034 448.45873 C 384.97491 448.45873 377.41117 456.02246 377.41117 465.4179 C 377.41117 474.81332 384.97512 482.37708 394.37034 482.37708 L 445.24786 482.37708 L 445.24786 533.2546 C 445.24786 542.65004 452.81172 550.21378 462.20704 550.21378 C 471.60248 550.21378 479.16621 542.64983 479.16621 533.2546 L 479.16621 482.37708 L 530.04374 482.37708 C 539.43928 482.37708 547.00291 474.81311 547.00291 465.4179 C 547.00291 456.02235 539.43896 448.45873 530.04374 448.45873 L 479.16621 448.45873 L 479.16621 397.5812 C 479.16621 388.18577 471.60226 380.62203 462.20704 380.62203 z " /></g></svg>
