<?xml version="1.0" encoding="UTF-8" standalone="no"?>
<svg
   height="512pt"
   width="512pt"
   viewBox="0 0 640.00262 639.99929"
   version="1.1"
   id="svg1"
   sodipodi:docname="itchio.svg"
   xml:space="preserve"
   inkscape:version="1.4.2 (ebf0e940d0, 2025-05-08)"
   xmlns:inkscape="http://www.inkscape.org/namespaces/inkscape"
   xmlns:sodipodi="http://sodipodi.sourceforge.net/DTD/sodipodi-0.dtd"
   xmlns="http://www.w3.org/2000/svg"
   xmlns:svg="http://www.w3.org/2000/svg"><defs
     id="defs1" /><sodipodi:namedview
     id="namedview1"
     pagecolor="#ffffff"
     bordercolor="#000000"
     borderopacity="0.25"
     inkscape:showpageshadow="2"
     inkscape:pageopacity="0.0"
     inkscape:pagecheckerboard="0"
     inkscape:deskcolor="#d1d1d1"
     inkscape:zoom="1.2072819"
     inkscape:cx="89.457153"
     inkscape:cy="129.21589"
     inkscape:window-width="1920"
     inkscape:window-height="1013"
     inkscape:window-x="0"
     inkscape:window-y="0"
     inkscape:window-maximized="1"
     inkscape:current-layer="svg1"
     inkscape:document-units="pt" /><path
     id="rect1"
     style="fill:#ffffff;stroke:none;stroke-width:0.445675;paint-order:stroke fill markers"
     d="M 93.230584,179.328 H 546.63652 L 521.78986,515.57585 H 114.97373 Z"
     sodipodi:nodetypes="ccccc" /><path
     d="M 119.08568,78.531483 C 95.37571,92.609485 48.662441,146.27425 48.219388,160.34782 v 23.29572 c 0,29.52947 27.602188,55.4835 52.663472,55.4835 30.09214,0 55.1645,-24.93944 55.16671,-54.5398 0,29.60036 24.21284,54.5398 54.3072,54.5398 30.09657,0 53.53185,-24.93944 53.53185,-54.5398 0,29.60036 25.74579,54.5398 55.84015,54.5398 h 0.54496 c 30.09657,0 55.84237,-24.93944 55.84237,-54.5398 0,29.60036 23.43749,54.5398 53.52963,54.5398 30.09436,0 54.3072,-24.93944 54.3072,-54.5398 0,29.60036 25.07679,54.5398 55.16671,54.5398 25.06128,0 52.66347,-25.9496 52.66347,-55.4835 V 160.34782 C 591.34006,146.27204 544.62679,92.605054 520.92125,78.531483 447.22828,75.944055 396.13987,75.496571 319.99903,75.507648 243.86042,75.514293 140.05758,76.70389 119.08125,78.531483 Z M 263.50759,225.21961 a 62.08277,62.08277 0 0 1 -10.58896,13.63495 c -11.35987,11.10733 -26.93096,17.99237 -44.09704,17.99237 A 63.095145,63.095145 0 0 1 164.6315,238.8457 c -4.11596,-4.03178 -7.24391,-8.34269 -10.10825,-13.36247 l -0.0133,0.009 c -2.86212,5.02865 -6.84959,9.33733 -10.97441,13.37355 a 63.13502,63.13502 0 0 1 -44.190087,17.98794 c -2.069057,0 -4.222293,-0.57154 -5.963491,-1.16966 -2.419068,25.19198 -3.440304,49.26747 -3.801393,66.82122 l -0.0044,0.0997 c -0.0443,8.91423 -0.08861,16.24453 -0.132916,26.4281 0.465206,52.8562 -5.234668,171.31522 23.304577,200.42157 44.22553,10.31205 125.60546,15.00841 207.24901,15.03721 h 0.0133 c 81.64134,-0.0288 163.02127,-4.72516 207.2468,-15.03721 28.53924,-29.10857 22.83937,-147.56759 23.30457,-200.42378 -0.0487,-10.18136 -0.0886,-17.51166 -0.13291,-26.4281 l -0.007,-0.0997 c -0.35887,-17.55818 -1.38011,-41.63145 -3.79918,-66.82343 -1.74119,0.59812 -3.89222,1.16966 -5.96349,1.16966 a 63.13502,63.13502 0 0 1 -44.18976,-17.9881 c -4.12482,-4.03621 -8.1123,-8.34268 -10.97663,-13.37354 l -0.0133,-0.009 c -2.86656,5.01978 -5.99229,9.3329 -10.10825,13.36247 a 63.090715,63.090715 0 0 1 -44.18787,17.99902 c -17.16387,0 -32.73717,-6.88947 -44.09704,-17.99459 a 62.08277,62.08277 0 0 1 -10.58897,-13.63495 62.005235,62.005235 0 0 1 -10.49149,13.63495 63.112867,63.112867 0 0 1 -44.19451,17.9968 c -0.59812,0 -1.19624,-0.0266 -1.79436,-0.0443 h -0.0155 c -0.59812,0.0177 -1.19624,0.0443 -1.80101,0.0443 a 63.112867,63.112867 0 0 1 -44.19451,-17.99459 62.009666,62.009666 0 0 1 -10.49149,-13.63495 z m -45.38189,58.68234 -0.004,0.0222 h 0.0332 c 17.97244,0.0377 33.93785,0 53.72015,21.58996 15.56888,-1.63265 31.83777,-2.44786 48.11996,-2.42349 h 0.0133 c 16.28219,-0.0222 32.55108,0.79084 48.12217,2.42349 19.78231,-21.59217 35.74772,-21.55451 53.72015,-21.58996 h 0.031 l -0.004,-0.0222 c 8.49111,0 42.45775,0 66.12563,66.47342 l 25.42237,91.19134 c 18.8386,67.84024 -6.03216,69.49947 -37.05472,69.55928 -46.0066,-1.71239 -71.47992,-35.123 -71.47992,-68.52918 -25.46667,4.17355 -55.17558,6.26033 -84.88448,6.26255 h -0.0133 c -29.71112,0 -59.42002,-2.089 -84.88448,-6.26255 0,33.40618 -25.47554,66.81679 -71.47992,68.52918 -31.02256,-0.0598 -55.89111,-1.71683 -37.0525,-69.55928 l 25.42901,-91.18912 c 23.66788,-66.47343 57.63452,-66.47343 66.12563,-66.47343 z m 101.8689,52.24035 v 0.0133 c -0.0443,0.0443 -48.43231,44.4825 -57.13165,60.28841 l 31.68713,-1.26935 v 27.6332 c 0,1.29372 12.71562,0.76649 25.44452,0.17723 h 0.0133 c 12.72447,0.58926 25.4423,1.11649 25.4423,-0.17723 v -27.6332 l 31.68714,1.26935 C 368.43578,380.6381 320.00568,336.1556 320.00568,336.1556 v -0.0133 l -0.007,0.004 z"
     color="#000000"
     id="path1"
     style="fill:#fa5c5c;fill-opacity:1;stroke-width:2.21526" /></svg>
