<?xml version="1.0" encoding="UTF-8"?>
<svg version="1.1" viewBox="0 0 200 85.699" xml:space="preserve" xmlns="http://www.w3.org/2000/svg"><defs><filter id="filter3" x="-.096457" y="-.2699" width="1.1855" height="1.5398" color-interpolation-filters="sRGB"><feGaussianBlur stdDeviation="4.6885588"/></filter></defs><g transform="translate(-8.4568 -7.1503)" stroke-linecap="square"><path transform="matrix(1.1335 0 0 1.1335 -10.56 -6.6747)" d="m37.719 66.617v.83733l1.5044-.3548v-.15611c0-1.2631-.51091-1.6037-1.8166-1.6037h-4.1583c-1.3766 0-1.8166.3548-1.8166 1.7314v.80894c0 1.3766.43995 1.7314 1.8166 1.7314h4.5698v1.6747h-5.1801v-.86571l-1.5044.31222v.19869c0 1.3766.45414 1.7314 1.8308 1.7314h4.5272c1.3766 0 1.8308-.3548 1.8308-1.7314v-1.0076c0-1.3766-.45414-1.7314-1.8308-1.7314h-4.5698v-1.5753zm29.968 4.6692v-4.6408h5.62v4.6408h-1.5611l-.99344-2.0862-1.2347.49672.68122 1.5895zm-1.703-4.215v3.8602c0 1.3766.43995 1.7314 1.8166 1.7314h3.0087l.82314 1.8875h1.6888l-.92248-1.8875h.79475c1.3766 0 1.8166-.3548 1.8166-1.7314v-3.8602c0-1.3766-.43995-1.7314-1.8166-1.7314h-5.393c-1.3766 0-1.8166.3548-1.8166 1.7314zm37.603-1.7314h-1.703v5.5916c0 1.3766.43996 1.7314 1.8166 1.7314h4.6266c1.3766 0 1.8166-.3548 1.8166-1.7314v-5.5916h-1.703v5.9464h-4.8537zm31.855 7.3231h1.703l.85152-1.6037h4.6408l.8799 1.6037h1.9159l-4.2008-7.3231h-1.6463zm3.2784-2.9236 1.6321-2.9803 1.5753 2.9803zm32.352 2.9236h4.2718c1.3057 0 2.2991-.12772 3.0087-.56768 1.0218-.62444 1.6179-1.7598 1.6179-3.1364 0-2.2707-1.4476-3.619-4.1866-3.619h-4.7117zm1.703-1.3766v-4.6408h3.0229c1.6037 0 2.4126.79475 2.4126 2.2849 0 1.8166-1.0786 2.3559-3.2358 2.3559zm-141.32-10.878h6.2865l3.1433-5.9198h17.131l3.248 5.9198h7.0723l-15.507-27.032h-6.077zm12.102-10.792 6.0246-11.001 5.815 11.001zm45.594 10.792h5.0816v-16.712c0-.89059-.0524-1.7812-.15716-2.8813.4191 1.0478.99536 1.9383 1.624 2.7765l10.163 13.568h1.2573l10.163-13.516c.47149-.62865.99536-1.624 1.5716-2.8289-.15717 1.4145-.20955 2.3574-.20955 2.8813v16.712h5.815v-27.032h-5.0292l-12.468 16.345-12.73-16.345h-5.0816zm83.418-22.212v5.134l6.2865-.99537v-2.567c0-5.0816-1.624-6.3913-6.7056-6.3913h-16.135c-5.0816 0-6.7056 1.3097-6.7056 6.3913v14.249c0 5.0816 1.624 6.3913 6.7056 6.3913h16.135c5.0816 0 6.7056-1.3097 6.7056-6.3913v-3.1956l-6.2865-1.3097v5.815h-16.974v-17.131zm-76.138-11.892h2.213v-.85545h-5.5325v.85545h2.2037v3.9425h1.1158zm8.0778 3.9425h1.1158v-2.0642h3.4869v2.0642h1.1251v-4.7979h-1.1251v1.8597h-3.4869v-1.8597h-1.1158zm12.68 0h4.956v-.90194h-3.8402v-1.1902h2.213v-.81825h-2.213v-1.0693h3.7937v-.81826h-4.9095z" fill="#9bb7ff" filter="url(#filter3)" stroke="#007ac9" stroke-width="4" style="mix-blend-mode:normal;paint-order:markers stroke fill"/><path d="m32.194 68.836v.94911l1.7052-.40216v-.17695c0-1.4317-.57912-1.8178-2.0591-1.8178h-4.7134c-1.5604 0-2.0591.40216-2.0591 1.9626v.91693c0 1.5604.49868 1.9626 2.0591 1.9626h5.1799v1.8982h-5.8716v-.98128l-1.7052.3539v.22522c0 1.5604.51477 1.9626 2.0752 1.9626h5.1316c1.5604 0 2.0752-.40216 2.0752-1.9626v-1.1421c0-1.5604-.51477-1.9626-2.0752-1.9626h-5.1799v-1.7856zm33.968 5.2925v-5.2603h6.3703v5.2603h-1.7695l-1.1261-2.3647-1.3995.56303.77216 1.8017zm-1.9304-4.7777v4.3755c0 1.5604.49868 1.9626 2.0591 1.9626h3.4103l.93302 2.1395h1.9143l-1.0456-2.1395h.90084c1.5604 0 2.0591-.40216 2.0591-1.9626v-4.3755c0-1.5604-.49868-1.9626-2.0591-1.9626h-6.1129c-1.5604 0-2.0591.40216-2.0591 1.9626zm42.623-1.9626h-1.9304v6.3381c0 1.5604.49868 1.9626 2.0591 1.9626h5.2442c1.5604 0 2.0591-.40216 2.0591-1.9626v-6.3381h-1.9304v6.7403h-5.5016zm36.108 8.3007h1.9304l.96519-1.8178h5.2603l.99737 1.8178h2.1717l-4.7616-8.3007h-1.866zm3.716-3.3138 1.85-3.3782 1.7856 3.3782zm36.671 3.3138h4.8421c1.48 0 2.606-.14477 3.4103-.64346 1.1582-.7078 1.8338-1.9947 1.8338-3.5551 0-2.5738-1.6408-4.1021-4.7455-4.1021h-5.3407zm1.9304-1.5604v-5.2603h3.4264c1.8178 0 2.7347.90084 2.7347 2.5899 0 2.0591-1.2226 2.6704-3.6677 2.6704zm-160.18-12.33h7.1257l3.5629-6.7101h19.418l3.6816 6.7101h8.0164l-17.577-30.641h-6.8882zm13.717-12.232 6.8288-12.47 6.5913 12.47zm51.681 12.232h5.76v-18.943c0-1.0095-.05937-2.019-.17814-3.266.47505 1.1876 1.1282 2.1971 1.8408 3.1472l11.52 15.38h1.4251l11.52-15.32c.53445-.71257 1.1282-1.8408 1.7814-3.2066-.17816 1.6033-.23753 2.6721-.23753 3.266v18.943h6.5913v-30.641h-5.7006l-14.133 18.527-14.43-18.527h-5.76zm94.554-25.178v5.8193l7.1257-1.1282v-2.9097c0-5.76-1.8408-7.2445-7.6008-7.2445h-18.289c-5.76 0-7.6008 1.4845-7.6008 7.2445v16.152c0 5.7599 1.8408 7.2445 7.6008 7.2445h18.289c5.76 0 7.6008-1.4845 7.6008-7.2445v-3.6222l-7.1257-1.4845v6.5913h-19.239v-19.418zm-86.302-13.479h2.5084v-.96965h-6.2711v.96965h2.4979v4.4688h1.2648zm9.1561 4.4688h1.2648v-2.3398h3.9524v2.3398h1.2753v-5.4384h-1.2753v2.1079h-3.9524v-2.1079h-1.2648zm14.373 0h5.6176v-1.0223h-4.3529v-1.3491h2.5084v-.92748h-2.5084v-1.2121h4.3002v-.92749h-5.5649z" fill="#fff" stroke-width="19.799" style="mix-blend-mode:normal;paint-order:markers stroke fill"/></g></svg>
