<?xml version="1.0" encoding="UTF-8" standalone="no"?>
<!-- Created with Inkscape (http://www.inkscape.org/) -->

<svg
   width="512pt"
   height="512pt"
   viewBox="0 0 180.62221 180.62222"
   version="1.1"
   id="svg1"
   xml:space="preserve"
   sodipodi:docname="moddb.svg"
   inkscape:version="1.4.2 (ebf0e940d0, 2025-05-08)"
   xmlns:inkscape="http://www.inkscape.org/namespaces/inkscape"
   xmlns:sodipodi="http://sodipodi.sourceforge.net/DTD/sodipodi-0.dtd"
   xmlns="http://www.w3.org/2000/svg"
   xmlns:svg="http://www.w3.org/2000/svg"><sodipodi:namedview
     id="namedview1"
     pagecolor="#ffffff"
     bordercolor="#000000"
     borderopacity="0.25"
     inkscape:showpageshadow="2"
     inkscape:pageopacity="0.0"
     inkscape:pagecheckerboard="0"
     inkscape:deskcolor="#d1d1d1"
     inkscape:document-units="mm"
     inkscape:zoom="0.50646226"
     inkscape:cx="311.96797"
     inkscape:cy="517.31397"
     inkscape:window-width="1920"
     inkscape:window-height="1013"
     inkscape:window-x="0"
     inkscape:window-y="0"
     inkscape:window-maximized="1"
     inkscape:current-layer="layer1" /><defs
     id="defs1" /><g
     inkscape:label="Layer 1"
     inkscape:groupmode="layer"
     id="layer1"><g
       id="g6"
       transform="matrix(11.295698,0,0,11.295698,-1168.9317,-1286.1712)"><path
         id="path1-2-0"
         style="fill:none;fill-opacity:1;stroke:#d4d4d4;stroke-width:1;stroke-dasharray:none;stroke-opacity:1;paint-order:stroke fill markers"
         d="m 110.6364,116.94661 c -1.03398,0.3549 -1.72842,1.32733 -1.72857,2.42052 -2e-5,0.97974 0.55056,1.83066 1.35909,2.26085 0.81263,0.20964 1.60177,0.26132 2.40088,0 0.80852,-0.43019 1.35911,-1.28111 1.35909,-2.26085 -1.5e-4,-1.09319 -0.69459,-2.06562 -1.72857,-2.42052 v 2.42052 h -1.66192 z"
         sodipodi:nodetypes="ccccccccc" /><rect
         style="opacity:0.766686;fill:#cc0000;fill-opacity:1;stroke:none;stroke-width:2.117;stroke-dasharray:none;paint-order:stroke fill markers"
         id="rect1"
         width="13.852612"
         height="13.852612"
         x="104.54105"
         y="114.9305"
         ry="2" /><path
         id="path4"
         style="baseline-shift:baseline;display:inline;overflow:visible;opacity:1;vector-effect:none;fill:#000000;fill-opacity:1;stroke:none;stroke-opacity:1;paint-order:stroke fill markers;enable-background:accumulate;stop-color:#000000"
         d="m 110.39261,116.25249 c -1.33434,0.45799 -2.2343,1.71826 -2.23449,3.12901 -2e-5,1.13305 0.57808,2.13918 1.45366,2.73678 l -0.004,4.25608 c -5.1e-4,0.60193 0.48482,1.08675 1.08676,1.08675 h 1.54926 c 0.60193,0 1.08675,-0.48482 1.08624,-1.08675 l -0.004,-4.25918 c 0.87359,-0.59798 1.45057,-1.60261 1.45056,-2.73368 -2e-4,-1.41075 -0.90015,-2.67102 -2.23449,-3.12901 h -0.80926 v 2.37919 h -0.52606 v -2.37919 z"
         sodipodi:nodetypes="cccsssscccccccc" /><path
         id="path1-2"
         style="fill:#ffffff;fill-opacity:1;stroke:none;stroke-width:1.5;stroke-dasharray:none;stroke-opacity:1;paint-order:stroke fill markers"
         d="m 110.6364,116.91395 c -1.03398,0.3549 -1.72842,1.32733 -1.72857,2.42052 -2e-5,0.97974 0.55056,1.83066 1.35909,2.26085 v 4.76353 c 0,0.24442 0.1969,0.4408 0.44131,0.4408 h 1.51826 c 0.24441,0 0.44131,-0.19638 0.44131,-0.4408 v -4.76353 c 0.80852,-0.43019 1.35911,-1.28111 1.35909,-2.26085 -1.5e-4,-1.09319 -0.69459,-2.06562 -1.72857,-2.42052 v 2.42052 h -1.66192 z" /><path
         id="rect5"
         style="opacity:1;fill:#d6d6d6;fill-opacity:1;stroke-width:1.84003;paint-order:stroke fill markers"
         d="m 111.00149,121.85664 c -0.17681,0 -0.31936,0.14255 -0.31936,0.31937 v 3.82715 c 0,0.17681 0.14255,0.31936 0.31936,0.31936 h 0.20981 v -3.93671 h 0.58239 v -0.2098 c 0,-0.17682 -0.14202,-0.31937 -0.31884,-0.31937 z" /></g></g></svg>
