<?xml version="1.0" encoding="UTF-8" standalone="no"?>
<svg
   width="512pt"
   height="512pt"
   fill="currentColor"
   class="bi bi-tags-fill"
   viewBox="0 0 682.66667 682.66667"
   version="1.1"
   id="svg2"
   sodipodi:docname="tags.svg"
   xml:space="preserve"
   inkscape:version="1.4.2 (ebf0e940d0, 2025-05-08)"
   xmlns:inkscape="http://www.inkscape.org/namespaces/inkscape"
   xmlns:sodipodi="http://sodipodi.sourceforge.net/DTD/sodipodi-0.dtd"
   xmlns="http://www.w3.org/2000/svg"
   xmlns:svg="http://www.w3.org/2000/svg"><defs
     id="defs2" /><sodipodi:namedview
     id="namedview2"
     pagecolor="#ffffff"
     bordercolor="#000000"
     borderopacity="0.25"
     inkscape:showpageshadow="2"
     inkscape:pageopacity="0.0"
     inkscape:pagecheckerboard="0"
     inkscape:deskcolor="#d1d1d1"
     inkscape:zoom="0.78515625"
     inkscape:cx="215.24378"
     inkscape:cy="308.21891"
     inkscape:window-width="1920"
     inkscape:window-height="1013"
     inkscape:window-x="0"
     inkscape:window-y="0"
     inkscape:window-maximized="1"
     inkscape:current-layer="svg2"
     inkscape:document-units="pt" /><g
     id="g2"
     transform="matrix(36.757931,0,0,36.757931,54.882704,36.503738)"
     style="fill:#ffffff;fill-opacity:1;stroke:#000000;stroke-opacity:1;stroke-width:0.18136675;stroke-dasharray:none"><path
       d="M 2,2 A 1,1 0 0 1 3,1 h 4.586 a 1,1 0 0 1 0.707,0.293 l 7,7 a 1,1 0 0 1 0,1.414 l -4.586,4.586 a 1,1 0 0 1 -1.414,0 l -7,-7 A 1,1 0 0 1 2,6.586 Z m 3.5,4 a 1.5,1.5 0 1 0 0,-3 1.5,1.5 0 0 0 0,3"
       id="path1"
       style="fill:#ffffff;fill-opacity:1;stroke:#000000;stroke-opacity:1;stroke-width:0.18136675;stroke-dasharray:none" /><path
       d="M 1.293,7.793 A 1,1 0 0 1 1,7.086 V 2 A 1,1 0 0 0 0,3 v 4.586 a 1,1 0 0 0 0.293,0.707 l 7,7 a 1,1 0 0 0 1.414,0 L 8.75,15.25 Z"
       id="path2"
       style="fill:#ffffff;fill-opacity:1;stroke:#000000;stroke-opacity:1;stroke-width:0.18136675;stroke-dasharray:none" /></g></svg>
